<svg xmlns="http://www.w3.org/2000/svg" width="325.488" height="336.355" viewBox="0 0 325.488 336.355"><g transform="translate(-354.102 -5267.209)"><path d="M0,100.626,318.172,0" transform="translate(360.102 5269.115)" fill="none" stroke="#fff" stroke-width="4"/><line y1="139.206" x2="207.084" transform="translate(470.546 5269.65)" fill="none" stroke="#fff" stroke-width="4"/><line y1="152.984" x2="167.831" transform="translate(509.799 5269.65)" fill="none" stroke="#fff" stroke-width="4"/><line y1="286.466" x2="58.674" transform="translate(618.956 5268.5)" fill="none" stroke="#fff" stroke-width="4"/><line x2="110.445" y2="39.116" transform="translate(360.102 5369.741)" fill="none" stroke="#fff" stroke-width="4"/><line x2="109.158" y2="136.632" transform="translate(509.799 5420.635)" fill="none" stroke="#fff" stroke-width="4"/><line y1="85.134" x2="55.222" transform="translate(455.59 5421.512)" fill="none" stroke="#fff" stroke-width="4"/><line y1="97.789" x2="14.956" transform="translate(455.59 5408.857)" fill="none" stroke="#fff" stroke-width="4"/><line y1="46.019" x2="83.984" transform="translate(455.59 5460.628)" fill="none" stroke="#fff" stroke-width="4"/><line y1="95.181" x2="16.031" transform="translate(596.959 5403.758)" fill="none" stroke="#fff" stroke-width="4"/><line y1="12.593" x2="4.35" transform="translate(616.656 5376.706)" fill="none" stroke="#fff" stroke-width="4"/><line y1="49.47" x2="50.62" transform="translate(355.5 5485.938)" fill="none" stroke="#fff" stroke-width="4"/><line y1="49.47" x2="50.62" transform="translate(355.5 5552.665)" fill="none" stroke="#fff" stroke-width="4"/><line y1="49.47" x2="50.62" transform="translate(422.227 5552.665)" fill="none" stroke="#fff" stroke-width="4"/></g></svg>